<mxfile host="app.diagrams.net" modified="2021-06-15T09:11:51.410Z" agent="5.0 (Windows NT 10.0; Win64; x64) AppleWebKit/537.36 (KHTML, like Gecko) Chrome/91.0.4472.101 Safari/537.36" etag="OFgJ9AG9ehuqL5GI2b0x" version="14.7.8" type="github">
  <diagram id="C5RBs43oDa-KdzZeNtuy" name="Page-1">
    <mxGraphModel dx="827" dy="484" grid="1" gridSize="10" guides="1" tooltips="1" connect="1" arrows="1" fold="1" page="1" pageScale="1" pageWidth="827" pageHeight="1169" math="0" shadow="0">
      <root>
        <mxCell id="WIyWlLk6GJQsqaUBKTNV-0" />
        <mxCell id="WIyWlLk6GJQsqaUBKTNV-1" parent="WIyWlLk6GJQsqaUBKTNV-0" />
        <mxCell id="_qKUl-IqB4eXEuKwATwz-39" style="edgeStyle=orthogonalEdgeStyle;rounded=0;orthogonalLoop=1;jettySize=auto;html=1;exitX=1;exitY=0.5;exitDx=0;exitDy=0;fontFamily=Verdana;fontSize=13;entryX=0;entryY=0.5;entryDx=0;entryDy=0;" edge="1" parent="WIyWlLk6GJQsqaUBKTNV-1" source="_qKUl-IqB4eXEuKwATwz-0" target="_qKUl-IqB4eXEuKwATwz-13">
          <mxGeometry relative="1" as="geometry">
            <mxPoint x="550" y="230" as="targetPoint" />
          </mxGeometry>
        </mxCell>
        <mxCell id="_qKUl-IqB4eXEuKwATwz-42" style="edgeStyle=orthogonalEdgeStyle;rounded=0;orthogonalLoop=1;jettySize=auto;html=1;exitX=0.5;exitY=1;exitDx=0;exitDy=0;fontFamily=Verdana;fontSize=13;" edge="1" parent="WIyWlLk6GJQsqaUBKTNV-1" source="_qKUl-IqB4eXEuKwATwz-0">
          <mxGeometry relative="1" as="geometry">
            <mxPoint x="440" y="270" as="targetPoint" />
          </mxGeometry>
        </mxCell>
        <mxCell id="_qKUl-IqB4eXEuKwATwz-45" style="edgeStyle=orthogonalEdgeStyle;rounded=0;orthogonalLoop=1;jettySize=auto;html=1;exitX=0;exitY=1;exitDx=0;exitDy=0;entryX=0.5;entryY=0;entryDx=0;entryDy=0;fontFamily=Verdana;fontSize=13;" edge="1" parent="WIyWlLk6GJQsqaUBKTNV-1" source="_qKUl-IqB4eXEuKwATwz-0" target="_qKUl-IqB4eXEuKwATwz-11">
          <mxGeometry relative="1" as="geometry" />
        </mxCell>
        <mxCell id="_qKUl-IqB4eXEuKwATwz-47" style="edgeStyle=orthogonalEdgeStyle;rounded=0;orthogonalLoop=1;jettySize=auto;html=1;exitX=1;exitY=1;exitDx=0;exitDy=0;entryX=0.5;entryY=0;entryDx=0;entryDy=0;fontFamily=Verdana;fontSize=13;" edge="1" parent="WIyWlLk6GJQsqaUBKTNV-1" source="_qKUl-IqB4eXEuKwATwz-0" target="_qKUl-IqB4eXEuKwATwz-12">
          <mxGeometry relative="1" as="geometry" />
        </mxCell>
        <mxCell id="_qKUl-IqB4eXEuKwATwz-0" value="Micro&lt;br style=&quot;font-size: 13px;&quot;&gt;Controller" style="ellipse;whiteSpace=wrap;html=1;strokeWidth=2;fontFamily=Verdana;fontSize=13;fontStyle=1" vertex="1" parent="WIyWlLk6GJQsqaUBKTNV-1">
          <mxGeometry x="380" y="190" width="120" height="80" as="geometry" />
        </mxCell>
        <mxCell id="_qKUl-IqB4eXEuKwATwz-26" style="edgeStyle=orthogonalEdgeStyle;rounded=0;orthogonalLoop=1;jettySize=auto;html=1;exitX=0.5;exitY=1;exitDx=0;exitDy=0;entryX=0.5;entryY=0;entryDx=0;entryDy=0;fontFamily=Verdana;fontSize=13;" edge="1" parent="WIyWlLk6GJQsqaUBKTNV-1" source="_qKUl-IqB4eXEuKwATwz-1" target="_qKUl-IqB4eXEuKwATwz-23">
          <mxGeometry relative="1" as="geometry" />
        </mxCell>
        <mxCell id="_qKUl-IqB4eXEuKwATwz-1" value="Timer Use&amp;nbsp;&lt;br&gt;Medicine" style="rounded=1;whiteSpace=wrap;html=1;strokeWidth=2;fontFamily=Verdana;fontSize=13;fontStyle=1" vertex="1" parent="WIyWlLk6GJQsqaUBKTNV-1">
          <mxGeometry x="10" y="50" width="80" height="40" as="geometry" />
        </mxCell>
        <mxCell id="_qKUl-IqB4eXEuKwATwz-32" style="edgeStyle=orthogonalEdgeStyle;rounded=0;orthogonalLoop=1;jettySize=auto;html=1;exitX=1;exitY=0.5;exitDx=0;exitDy=0;entryX=0;entryY=0.5;entryDx=0;entryDy=0;fontFamily=Verdana;fontSize=13;" edge="1" parent="WIyWlLk6GJQsqaUBKTNV-1" source="_qKUl-IqB4eXEuKwATwz-2" target="_qKUl-IqB4eXEuKwATwz-5">
          <mxGeometry relative="1" as="geometry" />
        </mxCell>
        <mxCell id="_qKUl-IqB4eXEuKwATwz-2" value="Blink app" style="rounded=1;whiteSpace=wrap;html=1;strokeWidth=2;fontFamily=Verdana;fontSize=13;fontStyle=1" vertex="1" parent="WIyWlLk6GJQsqaUBKTNV-1">
          <mxGeometry x="170" y="130" width="100" height="40" as="geometry" />
        </mxCell>
        <mxCell id="_qKUl-IqB4eXEuKwATwz-28" style="edgeStyle=orthogonalEdgeStyle;rounded=0;orthogonalLoop=1;jettySize=auto;html=1;exitX=0.5;exitY=1;exitDx=0;exitDy=0;entryX=0.5;entryY=0;entryDx=0;entryDy=0;fontFamily=Verdana;fontSize=13;" edge="1" parent="WIyWlLk6GJQsqaUBKTNV-1" source="_qKUl-IqB4eXEuKwATwz-3" target="_qKUl-IqB4eXEuKwATwz-23">
          <mxGeometry relative="1" as="geometry" />
        </mxCell>
        <mxCell id="_qKUl-IqB4eXEuKwATwz-3" value="Real time" style="rounded=1;whiteSpace=wrap;html=1;strokeWidth=2;fontFamily=Verdana;fontSize=13;fontStyle=1" vertex="1" parent="WIyWlLk6GJQsqaUBKTNV-1">
          <mxGeometry x="110" y="50" width="80" height="40" as="geometry" />
        </mxCell>
        <mxCell id="_qKUl-IqB4eXEuKwATwz-36" style="edgeStyle=orthogonalEdgeStyle;rounded=0;orthogonalLoop=1;jettySize=auto;html=1;exitX=1;exitY=0.5;exitDx=0;exitDy=0;fontFamily=Verdana;fontSize=13;" edge="1" parent="WIyWlLk6GJQsqaUBKTNV-1" source="_qKUl-IqB4eXEuKwATwz-4" target="_qKUl-IqB4eXEuKwATwz-0">
          <mxGeometry relative="1" as="geometry">
            <Array as="points">
              <mxPoint x="350" y="260" />
              <mxPoint x="350" y="230" />
            </Array>
          </mxGeometry>
        </mxCell>
        <mxCell id="_qKUl-IqB4eXEuKwATwz-4" value="USB CH340" style="rounded=1;whiteSpace=wrap;html=1;strokeWidth=2;fontFamily=Verdana;fontSize=13;fontStyle=1" vertex="1" parent="WIyWlLk6GJQsqaUBKTNV-1">
          <mxGeometry x="170" y="240" width="100" height="40" as="geometry" />
        </mxCell>
        <mxCell id="_qKUl-IqB4eXEuKwATwz-35" style="edgeStyle=orthogonalEdgeStyle;rounded=0;orthogonalLoop=1;jettySize=auto;html=1;exitX=0.5;exitY=1;exitDx=0;exitDy=0;entryX=0;entryY=0.5;entryDx=0;entryDy=0;fontFamily=Verdana;fontSize=13;" edge="1" parent="WIyWlLk6GJQsqaUBKTNV-1" source="_qKUl-IqB4eXEuKwATwz-5" target="_qKUl-IqB4eXEuKwATwz-0">
          <mxGeometry relative="1" as="geometry" />
        </mxCell>
        <mxCell id="_qKUl-IqB4eXEuKwATwz-5" value="Module Wifi" style="rounded=1;whiteSpace=wrap;html=1;strokeWidth=2;fontFamily=Verdana;fontSize=13;fontStyle=1" vertex="1" parent="WIyWlLk6GJQsqaUBKTNV-1">
          <mxGeometry x="300" y="130" width="100" height="40" as="geometry" />
        </mxCell>
        <mxCell id="_qKUl-IqB4eXEuKwATwz-37" style="edgeStyle=orthogonalEdgeStyle;rounded=0;orthogonalLoop=1;jettySize=auto;html=1;exitX=0.5;exitY=1;exitDx=0;exitDy=0;entryX=0.5;entryY=0;entryDx=0;entryDy=0;fontFamily=Verdana;fontSize=13;" edge="1" parent="WIyWlLk6GJQsqaUBKTNV-1" source="_qKUl-IqB4eXEuKwATwz-8" target="_qKUl-IqB4eXEuKwATwz-0">
          <mxGeometry relative="1" as="geometry" />
        </mxCell>
        <mxCell id="_qKUl-IqB4eXEuKwATwz-8" value="Sensor" style="rounded=1;whiteSpace=wrap;html=1;strokeWidth=2;fontFamily=Verdana;fontSize=13;fontStyle=1" vertex="1" parent="WIyWlLk6GJQsqaUBKTNV-1">
          <mxGeometry x="400" y="40" width="80" height="40" as="geometry" />
        </mxCell>
        <mxCell id="_qKUl-IqB4eXEuKwATwz-38" style="edgeStyle=orthogonalEdgeStyle;rounded=0;orthogonalLoop=1;jettySize=auto;html=1;exitX=0.5;exitY=1;exitDx=0;exitDy=0;fontFamily=Verdana;fontSize=13;" edge="1" parent="WIyWlLk6GJQsqaUBKTNV-1" source="_qKUl-IqB4eXEuKwATwz-9">
          <mxGeometry relative="1" as="geometry">
            <mxPoint x="440" y="190" as="targetPoint" />
            <Array as="points">
              <mxPoint x="560" y="120" />
              <mxPoint x="440" y="120" />
            </Array>
          </mxGeometry>
        </mxCell>
        <mxCell id="_qKUl-IqB4eXEuKwATwz-9" value="Reset" style="rounded=1;whiteSpace=wrap;html=1;strokeWidth=2;fontFamily=Verdana;fontSize=13;fontStyle=1" vertex="1" parent="WIyWlLk6GJQsqaUBKTNV-1">
          <mxGeometry x="520" y="40" width="80" height="40" as="geometry" />
        </mxCell>
        <mxCell id="_qKUl-IqB4eXEuKwATwz-46" style="edgeStyle=orthogonalEdgeStyle;rounded=0;orthogonalLoop=1;jettySize=auto;html=1;entryX=0;entryY=1;entryDx=0;entryDy=0;fontFamily=Verdana;fontSize=13;" edge="1" parent="WIyWlLk6GJQsqaUBKTNV-1" source="_qKUl-IqB4eXEuKwATwz-11" target="_qKUl-IqB4eXEuKwATwz-0">
          <mxGeometry relative="1" as="geometry" />
        </mxCell>
        <mxCell id="_qKUl-IqB4eXEuKwATwz-11" value="Flash Memmory" style="whiteSpace=wrap;html=1;aspect=fixed;strokeWidth=2;fontFamily=Verdana;fontSize=13;fontStyle=1" vertex="1" parent="WIyWlLk6GJQsqaUBKTNV-1">
          <mxGeometry x="300" y="340" width="80" height="80" as="geometry" />
        </mxCell>
        <mxCell id="_qKUl-IqB4eXEuKwATwz-49" style="edgeStyle=orthogonalEdgeStyle;rounded=0;orthogonalLoop=1;jettySize=auto;html=1;exitX=1;exitY=0.5;exitDx=0;exitDy=0;fontFamily=Verdana;fontSize=13;" edge="1" parent="WIyWlLk6GJQsqaUBKTNV-1" source="_qKUl-IqB4eXEuKwATwz-12" target="_qKUl-IqB4eXEuKwATwz-15">
          <mxGeometry relative="1" as="geometry" />
        </mxCell>
        <mxCell id="_qKUl-IqB4eXEuKwATwz-50" style="edgeStyle=orthogonalEdgeStyle;rounded=0;orthogonalLoop=1;jettySize=auto;html=1;entryX=0;entryY=0.5;entryDx=0;entryDy=0;fontFamily=Verdana;fontSize=13;" edge="1" parent="WIyWlLk6GJQsqaUBKTNV-1" source="_qKUl-IqB4eXEuKwATwz-12" target="_qKUl-IqB4eXEuKwATwz-16">
          <mxGeometry relative="1" as="geometry" />
        </mxCell>
        <mxCell id="_qKUl-IqB4eXEuKwATwz-51" style="edgeStyle=orthogonalEdgeStyle;rounded=0;orthogonalLoop=1;jettySize=auto;html=1;exitX=0.5;exitY=1;exitDx=0;exitDy=0;entryX=0.5;entryY=0;entryDx=0;entryDy=0;fontFamily=Verdana;fontSize=13;" edge="1" parent="WIyWlLk6GJQsqaUBKTNV-1" source="_qKUl-IqB4eXEuKwATwz-12" target="_qKUl-IqB4eXEuKwATwz-17">
          <mxGeometry relative="1" as="geometry" />
        </mxCell>
        <mxCell id="_qKUl-IqB4eXEuKwATwz-53" style="edgeStyle=orthogonalEdgeStyle;rounded=0;orthogonalLoop=1;jettySize=auto;html=1;exitX=1;exitY=0.5;exitDx=0;exitDy=0;entryX=0;entryY=0.5;entryDx=0;entryDy=0;fontFamily=Verdana;fontSize=13;" edge="1" parent="WIyWlLk6GJQsqaUBKTNV-1" source="_qKUl-IqB4eXEuKwATwz-12" target="_qKUl-IqB4eXEuKwATwz-14">
          <mxGeometry relative="1" as="geometry">
            <Array as="points">
              <mxPoint x="660" y="370" />
              <mxPoint x="660" y="230" />
            </Array>
          </mxGeometry>
        </mxCell>
        <mxCell id="_qKUl-IqB4eXEuKwATwz-12" value="Alarm Control" style="rounded=1;whiteSpace=wrap;html=1;strokeWidth=2;fontFamily=Verdana;fontSize=13;fontStyle=1" vertex="1" parent="WIyWlLk6GJQsqaUBKTNV-1">
          <mxGeometry x="480" y="340" width="120" height="60" as="geometry" />
        </mxCell>
        <mxCell id="_qKUl-IqB4eXEuKwATwz-41" style="edgeStyle=orthogonalEdgeStyle;rounded=0;orthogonalLoop=1;jettySize=auto;html=1;exitX=1;exitY=0.5;exitDx=0;exitDy=0;entryX=0;entryY=0.5;entryDx=0;entryDy=0;fontFamily=Verdana;fontSize=13;" edge="1" parent="WIyWlLk6GJQsqaUBKTNV-1" source="_qKUl-IqB4eXEuKwATwz-13" target="_qKUl-IqB4eXEuKwATwz-14">
          <mxGeometry relative="1" as="geometry" />
        </mxCell>
        <mxCell id="_qKUl-IqB4eXEuKwATwz-13" value="RTC" style="rounded=1;whiteSpace=wrap;html=1;strokeWidth=2;fontFamily=Verdana;fontSize=13;fontStyle=1" vertex="1" parent="WIyWlLk6GJQsqaUBKTNV-1">
          <mxGeometry x="550" y="210" width="80" height="40" as="geometry" />
        </mxCell>
        <mxCell id="_qKUl-IqB4eXEuKwATwz-14" value="LCD Display" style="rounded=1;whiteSpace=wrap;html=1;strokeWidth=2;fontFamily=Verdana;fontSize=13;fontStyle=1" vertex="1" parent="WIyWlLk6GJQsqaUBKTNV-1">
          <mxGeometry x="690" y="200" width="120" height="60" as="geometry" />
        </mxCell>
        <mxCell id="_qKUl-IqB4eXEuKwATwz-15" value="Led" style="rounded=1;whiteSpace=wrap;html=1;strokeWidth=2;fontFamily=Verdana;fontSize=13;fontStyle=1" vertex="1" parent="WIyWlLk6GJQsqaUBKTNV-1">
          <mxGeometry x="720" y="350" width="80" height="40" as="geometry" />
        </mxCell>
        <mxCell id="_qKUl-IqB4eXEuKwATwz-16" value="Buzzer" style="rounded=1;whiteSpace=wrap;html=1;strokeWidth=2;fontFamily=Verdana;fontSize=13;fontStyle=1" vertex="1" parent="WIyWlLk6GJQsqaUBKTNV-1">
          <mxGeometry x="720" y="420" width="80" height="40" as="geometry" />
        </mxCell>
        <mxCell id="_qKUl-IqB4eXEuKwATwz-48" style="edgeStyle=orthogonalEdgeStyle;rounded=0;orthogonalLoop=1;jettySize=auto;html=1;exitX=1;exitY=0.5;exitDx=0;exitDy=0;entryX=0;entryY=0.5;entryDx=0;entryDy=0;fontFamily=Verdana;fontSize=13;" edge="1" parent="WIyWlLk6GJQsqaUBKTNV-1" source="_qKUl-IqB4eXEuKwATwz-17" target="_qKUl-IqB4eXEuKwATwz-18">
          <mxGeometry relative="1" as="geometry" />
        </mxCell>
        <mxCell id="_qKUl-IqB4eXEuKwATwz-17" value="L9110s" style="rounded=1;whiteSpace=wrap;html=1;strokeWidth=2;fontFamily=Verdana;fontSize=13;fontStyle=1" vertex="1" parent="WIyWlLk6GJQsqaUBKTNV-1">
          <mxGeometry x="480" y="480" width="120" height="60" as="geometry" />
        </mxCell>
        <mxCell id="_qKUl-IqB4eXEuKwATwz-18" value="Motor" style="rounded=1;whiteSpace=wrap;html=1;strokeWidth=2;fontFamily=Verdana;fontSize=13;fontStyle=1" vertex="1" parent="WIyWlLk6GJQsqaUBKTNV-1">
          <mxGeometry x="720" y="490" width="80" height="40" as="geometry" />
        </mxCell>
        <mxCell id="_qKUl-IqB4eXEuKwATwz-29" style="edgeStyle=orthogonalEdgeStyle;rounded=0;orthogonalLoop=1;jettySize=auto;html=1;exitX=1;exitY=0.5;exitDx=0;exitDy=0;entryX=0;entryY=0.5;entryDx=0;entryDy=0;fontFamily=Verdana;fontSize=13;" edge="1" parent="WIyWlLk6GJQsqaUBKTNV-1" source="_qKUl-IqB4eXEuKwATwz-23" target="_qKUl-IqB4eXEuKwATwz-2">
          <mxGeometry relative="1" as="geometry" />
        </mxCell>
        <mxCell id="_qKUl-IqB4eXEuKwATwz-31" style="edgeStyle=orthogonalEdgeStyle;rounded=0;orthogonalLoop=1;jettySize=auto;html=1;exitX=1;exitY=0.5;exitDx=0;exitDy=0;entryX=0;entryY=0.5;entryDx=0;entryDy=0;fontFamily=Verdana;fontSize=13;" edge="1" parent="WIyWlLk6GJQsqaUBKTNV-1" source="_qKUl-IqB4eXEuKwATwz-23" target="_qKUl-IqB4eXEuKwATwz-4">
          <mxGeometry relative="1" as="geometry" />
        </mxCell>
        <mxCell id="_qKUl-IqB4eXEuKwATwz-23" value="Data" style="rounded=1;whiteSpace=wrap;html=1;strokeWidth=2;fontFamily=Verdana;fontSize=13;fontStyle=1" vertex="1" parent="WIyWlLk6GJQsqaUBKTNV-1">
          <mxGeometry x="40" y="180" width="80" height="40" as="geometry" />
        </mxCell>
      </root>
    </mxGraphModel>
  </diagram>
</mxfile>
